# This file uses centimeters as units for non-parametric coordinates.

v -1.485809 -0.162832 1.485809
v 1.485809 -0.162832 1.485809
v -1.485809 0.162832 1.485809
v 1.485809 0.162832 1.485809
v -1.485809 0.162832 -1.485809
v 1.485809 0.162832 -1.485809
v -1.485809 -0.162832 -1.485809
v 1.485809 -0.162832 -1.485809
vt 0.962030 0.957215
vt 0.962030 0.950785
vt 0.962735 0.950785
vt 0.962735 0.957215
vt 0.961250 0.957215
vt 0.961250 0.950785
vt 0.961955 0.950785
vt 0.961955 0.957215
vt 0.023025 0.044595
vt 0.903184 0.044595
vt 0.903184 0.924754
vt 0.023025 0.924754
vt 0.962809 0.950785
vt 0.969239 0.950785
vt 0.969239 0.957215
vt 0.962809 0.957215
vt 0.957112 0.957050
vt 0.957112 0.950620
vt 0.957816 0.950620
vt 0.957816 0.957050
vt 0.959257 0.956987
vt 0.959257 0.950557
vt 0.959961 0.950557
vt 0.959961 0.956987
vn 0.000000 0.000000 1.000000
vn 0.000000 0.000000 1.000000
vn 0.000000 0.000000 1.000000
vn 0.000000 0.000000 1.000000
vn 0.000000 1.000000 0.000000
vn 0.000000 1.000000 0.000000
vn 0.000000 1.000000 0.000000
vn 0.000000 1.000000 0.000000
vn 0.000000 0.000000 -1.000000
vn 0.000000 0.000000 -1.000000
vn 0.000000 0.000000 -1.000000
vn 0.000000 0.000000 -1.000000
vn 0.000000 -1.000000 0.000000
vn 0.000000 -1.000000 0.000000
vn 0.000000 -1.000000 0.000000
vn 0.000000 -1.000000 0.000000
vn 1.000000 0.000000 0.000000
vn 1.000000 0.000000 0.000000
vn 1.000000 0.000000 0.000000
vn 1.000000 0.000000 0.000000
vn -1.000000 0.000000 0.000000
vn -1.000000 0.000000 0.000000
vn -1.000000 0.000000 0.000000
vn -1.000000 0.000000 0.000000
f 1/17/1 2/18/2 3/20/3
f 3/20/3 2/18/2 4/19/4
f 3/9/5 4/10/6 5/12/7
f 5/12/7 4/10/6 6/11/8
f 5/21/9 6/22/10 7/24/11
f 7/24/11 6/22/10 8/23/12
f 7/13/13 8/14/14 1/16/15
f 1/16/15 8/14/14 2/15/16
f 2/1/17 8/2/18 4/4/19
f 4/4/19 8/2/18 6/3/20
f 7/5/21 1/6/22 5/8/23
f 5/8/23 1/6/22 3/7/24
